<svg width="216" height="19" viewBox="0 0 216 19" fill="none" xmlns="http://www.w3.org/2000/svg">
<path d="M5.168 7H4.256L1.512 2.848V7H0.6V1.432H1.512L4.256 5.576V1.432H5.168V7ZM6.06163 4.776C6.06163 4.33333 6.15229 3.94133 6.33363 3.6C6.52029 3.25867 6.77096 2.99467 7.08563 2.808C7.40563 2.616 7.75763 2.52 8.14163 2.52C8.48829 2.52 8.78963 2.58933 9.04563 2.728C9.30696 2.86133 9.51496 3.02933 9.66963 3.232V2.592H10.5896V7H9.66963V6.344C9.51496 6.552 9.30429 6.72533 9.03763 6.864C8.77096 7.00267 8.46696 7.072 8.12563 7.072C7.74696 7.072 7.40029 6.976 7.08563 6.784C6.77096 6.58667 6.52029 6.31467 6.33363 5.968C6.15229 5.616 6.06163 5.21867 6.06163 4.776ZM9.66963 4.792C9.66963 4.488 9.60563 4.224 9.47763 4C9.35496 3.776 9.19229 3.60533 8.98963 3.488C8.78696 3.37067 8.56829 3.312 8.33363 3.312C8.09896 3.312 7.88029 3.37067 7.67763 3.488C7.47496 3.6 7.30963 3.768 7.18163 3.992C7.05896 4.21067 6.99763 4.472 6.99763 4.776C6.99763 5.08 7.05896 5.34667 7.18163 5.576C7.30963 5.80533 7.47496 5.98133 7.67763 6.104C7.88563 6.22133 8.10429 6.28 8.33363 6.28C8.56829 6.28 8.78696 6.22133 8.98963 6.104C9.19229 5.98667 9.35496 5.816 9.47763 5.592C9.60563 5.36267 9.66963 5.096 9.66963 4.792ZM13.4915 6.184L14.7395 2.592H15.7075L14.0275 7H12.9395L11.2675 2.592H12.2435L13.4915 6.184ZM16.8609 2.008C16.6955 2.008 16.5569 1.952 16.4449 1.84C16.3329 1.728 16.2769 1.58933 16.2769 1.424C16.2769 1.25867 16.3329 1.12 16.4449 1.008C16.5569 0.896 16.6955 0.84 16.8609 0.84C17.0209 0.84 17.1569 0.896 17.2689 1.008C17.3809 1.12 17.4369 1.25867 17.4369 1.424C17.4369 1.58933 17.3809 1.728 17.2689 1.84C17.1569 1.952 17.0209 2.008 16.8609 2.008ZM17.3089 2.592V7H16.3969V2.592H17.3089ZM20.2823 2.52C20.6236 2.52 20.9249 2.58933 21.1863 2.728C21.4529 2.86133 21.6609 3.02933 21.8103 3.232V2.592H22.7303V7.072C22.7303 7.47733 22.6449 7.83733 22.4743 8.152C22.3036 8.472 22.0556 8.72267 21.7303 8.904C21.4103 9.08533 21.0263 9.176 20.5783 9.176C19.9809 9.176 19.4849 9.03467 19.0903 8.752C18.6956 8.47467 18.4716 8.096 18.4183 7.616H19.3223C19.3916 7.84533 19.5383 8.02933 19.7623 8.168C19.9916 8.312 20.2636 8.384 20.5783 8.384C20.9463 8.384 21.2423 8.272 21.4663 8.048C21.6956 7.824 21.8103 7.49867 21.8103 7.072V6.336C21.6556 6.544 21.4449 6.72 21.1783 6.864C20.9169 7.00267 20.6183 7.072 20.2823 7.072C19.8983 7.072 19.5463 6.976 19.2263 6.784C18.9116 6.58667 18.6609 6.31467 18.4743 5.968C18.2929 5.616 18.2023 5.21867 18.2023 4.776C18.2023 4.33333 18.2929 3.94133 18.4743 3.6C18.6609 3.25867 18.9116 2.99467 19.2263 2.808C19.5463 2.616 19.8983 2.52 20.2823 2.52ZM21.8103 4.792C21.8103 4.488 21.7463 4.224 21.6183 4C21.4956 3.776 21.3329 3.60533 21.1303 3.488C20.9276 3.37067 20.7089 3.312 20.4743 3.312C20.2396 3.312 20.0209 3.37067 19.8183 3.488C19.6156 3.6 19.4503 3.768 19.3223 3.992C19.1996 4.21067 19.1383 4.472 19.1383 4.776C19.1383 5.08 19.1996 5.34667 19.3223 5.576C19.4503 5.80533 19.6156 5.98133 19.8183 6.104C20.0263 6.22133 20.2449 6.28 20.4743 6.28C20.7089 6.28 20.9276 6.22133 21.1303 6.104C21.3329 5.98667 21.4956 5.816 21.6183 5.592C21.7463 5.36267 21.8103 5.096 21.8103 4.792ZM23.6241 4.776C23.6241 4.33333 23.7148 3.94133 23.8961 3.6C24.0828 3.25867 24.3335 2.99467 24.6481 2.808C24.9681 2.616 25.3201 2.52 25.7041 2.52C26.0508 2.52 26.3521 2.58933 26.6081 2.728C26.8695 2.86133 27.0775 3.02933 27.2321 3.232V2.592H28.1521V7H27.2321V6.344C27.0775 6.552 26.8668 6.72533 26.6001 6.864C26.3335 7.00267 26.0295 7.072 25.6881 7.072C25.3095 7.072 24.9628 6.976 24.6481 6.784C24.3335 6.58667 24.0828 6.31467 23.8961 5.968C23.7148 5.616 23.6241 5.21867 23.6241 4.776ZM27.2321 4.792C27.2321 4.488 27.1681 4.224 27.0401 4C26.9175 3.776 26.7548 3.60533 26.5521 3.488C26.3495 3.37067 26.1308 3.312 25.8961 3.312C25.6615 3.312 25.4428 3.37067 25.2401 3.488C25.0375 3.6 24.8721 3.768 24.7441 3.992C24.6215 4.21067 24.5601 4.472 24.5601 4.776C24.5601 5.08 24.6215 5.34667 24.7441 5.576C24.8721 5.80533 25.0375 5.98133 25.2401 6.104C25.4481 6.22133 25.6668 6.28 25.8961 6.28C26.1308 6.28 26.3495 6.22133 26.5521 6.104C26.7548 5.98667 26.9175 5.816 27.0401 5.592C27.1681 5.36267 27.2321 5.096 27.2321 4.792ZM30.414 3.336V5.776C30.414 5.94133 30.4513 6.06133 30.526 6.136C30.606 6.20533 30.7393 6.24 30.926 6.24H31.486V7H30.766C30.3553 7 30.0407 6.904 29.822 6.712C29.6033 6.52 29.494 6.208 29.494 5.776V3.336H28.974V2.592H29.494V1.496H30.414V2.592H31.486V3.336H30.414ZM32.7906 2.008C32.6252 2.008 32.4866 1.952 32.3746 1.84C32.2626 1.728 32.2066 1.58933 32.2066 1.424C32.2066 1.25867 32.2626 1.12 32.3746 1.008C32.4866 0.896 32.6252 0.84 32.7906 0.84C32.9506 0.84 33.0866 0.896 33.1986 1.008C33.3106 1.12 33.3666 1.25867 33.3666 1.424C33.3666 1.58933 33.3106 1.728 33.1986 1.84C33.0866 1.952 32.9506 2.008 32.7906 2.008ZM33.2386 2.592V7H32.3266V2.592H33.2386ZM36.3479 7.072C35.9319 7.072 35.5559 6.97867 35.2199 6.792C34.8839 6.6 34.6199 6.33333 34.4279 5.992C34.2359 5.64533 34.1399 5.24533 34.1399 4.792C34.1399 4.344 34.2386 3.94667 34.4359 3.6C34.6333 3.25333 34.9026 2.98667 35.2439 2.8C35.5853 2.61333 35.9666 2.52 36.3879 2.52C36.8093 2.52 37.1906 2.61333 37.5319 2.8C37.8733 2.98667 38.1426 3.25333 38.3399 3.6C38.5373 3.94667 38.6359 4.344 38.6359 4.792C38.6359 5.24 38.5346 5.63733 38.3319 5.984C38.1293 6.33067 37.8519 6.6 37.4999 6.792C37.1533 6.97867 36.7693 7.072 36.3479 7.072ZM36.3479 6.28C36.5826 6.28 36.8013 6.224 37.0039 6.112C37.2119 6 37.3799 5.832 37.5079 5.608C37.6359 5.384 37.6999 5.112 37.6999 4.792C37.6999 4.472 37.6386 4.20267 37.5159 3.984C37.3933 3.76 37.2306 3.592 37.0279 3.48C36.8253 3.368 36.6066 3.312 36.3719 3.312C36.1373 3.312 35.9186 3.368 35.7159 3.48C35.5186 3.592 35.3613 3.76 35.2439 3.984C35.1266 4.20267 35.0679 4.472 35.0679 4.792C35.0679 5.26667 35.1879 5.63467 35.4279 5.896C35.6733 6.152 35.9799 6.28 36.3479 6.28ZM41.7615 2.52C42.1082 2.52 42.4175 2.592 42.6895 2.736C42.9668 2.88 43.1828 3.09333 43.3375 3.376C43.4922 3.65867 43.5695 4 43.5695 4.4V7H42.6655V4.536C42.6655 4.14133 42.5668 3.84 42.3695 3.632C42.1722 3.41867 41.9028 3.312 41.5615 3.312C41.2202 3.312 40.9482 3.41867 40.7455 3.632C40.5482 3.84 40.4495 4.14133 40.4495 4.536V7H39.5375V2.592H40.4495V3.096C40.5988 2.91467 40.7882 2.77333 41.0175 2.672C41.2522 2.57067 41.5002 2.52 41.7615 2.52ZM48.4109 7.072C48.0643 7.072 47.7523 7.01067 47.4749 6.888C47.2029 6.76 46.9869 6.58933 46.8269 6.376C46.6669 6.15733 46.5816 5.91467 46.5709 5.648H47.5149C47.5309 5.83467 47.6189 5.992 47.7789 6.12C47.9443 6.24267 48.1496 6.304 48.3949 6.304C48.6509 6.304 48.8483 6.256 48.9869 6.16C49.1309 6.05867 49.2029 5.93067 49.2029 5.776C49.2029 5.61067 49.1229 5.488 48.9629 5.408C48.8083 5.328 48.5603 5.24 48.2189 5.144C47.8883 5.05333 47.6189 4.96533 47.4109 4.88C47.2029 4.79467 47.0216 4.664 46.8669 4.488C46.7176 4.312 46.6429 4.08 46.6429 3.792C46.6429 3.55733 46.7123 3.344 46.8509 3.152C46.9896 2.95467 47.1869 2.8 47.4429 2.688C47.7043 2.576 48.0029 2.52 48.3389 2.52C48.8403 2.52 49.2429 2.648 49.5469 2.904C49.8563 3.15467 50.0216 3.49867 50.0429 3.936H49.1309C49.1149 3.73867 49.0349 3.58133 48.8909 3.464C48.7469 3.34667 48.5523 3.288 48.3069 3.288C48.0669 3.288 47.8829 3.33333 47.7549 3.424C47.6269 3.51467 47.5629 3.63467 47.5629 3.784C47.5629 3.90133 47.6056 4 47.6909 4.08C47.7763 4.16 47.8803 4.224 48.0029 4.272C48.1256 4.31467 48.3069 4.37067 48.5469 4.44C48.8669 4.52533 49.1283 4.61333 49.3309 4.704C49.5389 4.78933 49.7176 4.91733 49.8669 5.088C50.0163 5.25867 50.0936 5.48533 50.0989 5.768C50.0989 6.01867 50.0296 6.24267 49.8909 6.44C49.7523 6.63733 49.5549 6.792 49.2989 6.904C49.0483 7.016 48.7523 7.072 48.4109 7.072ZM55.0524 2.592L52.3484 9.072H51.4044L52.3004 6.928L50.5644 2.592H51.5804L52.8204 5.952L54.1084 2.592H55.0524ZM57.3406 7.072C56.994 7.072 56.682 7.01067 56.4046 6.888C56.1326 6.76 55.9166 6.58933 55.7566 6.376C55.5966 6.15733 55.5113 5.91467 55.5006 5.648H56.4446C56.4606 5.83467 56.5486 5.992 56.7086 6.12C56.874 6.24267 57.0793 6.304 57.3246 6.304C57.5806 6.304 57.778 6.256 57.9166 6.16C58.0606 6.05867 58.1326 5.93067 58.1326 5.776C58.1326 5.61067 58.0526 5.488 57.8926 5.408C57.738 5.328 57.49 5.24 57.1486 5.144C56.818 5.05333 56.5486 4.96533 56.3406 4.88C56.1326 4.79467 55.9513 4.664 55.7966 4.488C55.6473 4.312 55.5726 4.08 55.5726 3.792C55.5726 3.55733 55.642 3.344 55.7806 3.152C55.9193 2.95467 56.1166 2.8 56.3726 2.688C56.634 2.576 56.9326 2.52 57.2686 2.52C57.77 2.52 58.1726 2.648 58.4766 2.904C58.786 3.15467 58.9513 3.49867 58.9726 3.936H58.0606C58.0446 3.73867 57.9646 3.58133 57.8206 3.464C57.6766 3.34667 57.482 3.288 57.2366 3.288C56.9966 3.288 56.8126 3.33333 56.6846 3.424C56.5566 3.51467 56.4926 3.63467 56.4926 3.784C56.4926 3.90133 56.5353 4 56.6206 4.08C56.706 4.16 56.81 4.224 56.9326 4.272C57.0553 4.31467 57.2366 4.37067 57.4766 4.44C57.7966 4.52533 58.058 4.61333 58.2606 4.704C58.4686 4.78933 58.6473 4.91733 58.7966 5.088C58.946 5.25867 59.0233 5.48533 59.0286 5.768C59.0286 6.01867 58.9593 6.24267 58.8206 6.44C58.682 6.63733 58.4846 6.792 58.2286 6.904C57.978 7.016 57.682 7.072 57.3406 7.072ZM61.0781 3.336V5.776C61.0781 5.94133 61.1154 6.06133 61.1901 6.136C61.2701 6.20533 61.4034 6.24 61.5901 6.24H62.1501V7H61.4301C61.0194 7 60.7047 6.904 60.4861 6.712C60.2674 6.52 60.1581 6.208 60.1581 5.776V3.336H59.6381V2.592H60.1581V1.496H61.0781V2.592H62.1501V3.336H61.0781ZM67.0306 4.688C67.0306 4.85333 67.02 5.00267 66.9986 5.136H63.6306C63.6573 5.488 63.788 5.77067 64.0226 5.984C64.2573 6.19733 64.5453 6.304 64.8866 6.304C65.3773 6.304 65.724 6.09867 65.9266 5.688H66.9106C66.7773 6.09333 66.5346 6.42667 66.1826 6.688C65.836 6.944 65.404 7.072 64.8866 7.072C64.4653 7.072 64.0866 6.97867 63.7506 6.792C63.42 6.6 63.1586 6.33333 62.9666 5.992C62.78 5.64533 62.6866 5.24533 62.6866 4.792C62.6866 4.33867 62.7773 3.94133 62.9586 3.6C63.1453 3.25333 63.404 2.98667 63.7346 2.8C64.0706 2.61333 64.4546 2.52 64.8866 2.52C65.3026 2.52 65.6733 2.61067 65.9986 2.792C66.324 2.97333 66.5773 3.22933 66.7586 3.56C66.94 3.88533 67.0306 4.26133 67.0306 4.688ZM66.0786 4.4C66.0733 4.064 65.9533 3.79467 65.7186 3.592C65.484 3.38933 65.1933 3.288 64.8466 3.288C64.532 3.288 64.2626 3.38933 64.0386 3.592C63.8146 3.78933 63.6813 4.05867 63.6386 4.4H66.0786ZM73.2641 2.52C73.6108 2.52 73.9201 2.592 74.1921 2.736C74.4695 2.88 74.6855 3.09333 74.8401 3.376C75.0001 3.65867 75.0801 4 75.0801 4.4V7H74.1761V4.536C74.1761 4.14133 74.0775 3.84 73.8801 3.632C73.6828 3.41867 73.4135 3.312 73.0721 3.312C72.7308 3.312 72.4588 3.41867 72.2561 3.632C72.0588 3.84 71.9601 4.14133 71.9601 4.536V7H71.0561V4.536C71.0561 4.14133 70.9575 3.84 70.7601 3.632C70.5628 3.41867 70.2935 3.312 69.9521 3.312C69.6108 3.312 69.3388 3.41867 69.1361 3.632C68.9388 3.84 68.8401 4.14133 68.8401 4.536V7H67.9281V2.592H68.8401V3.096C68.9895 2.91467 69.1788 2.77333 69.4081 2.672C69.6375 2.57067 69.8828 2.52 70.1441 2.52C70.4961 2.52 70.8108 2.59467 71.0881 2.744C71.3655 2.89333 71.5788 3.10933 71.7281 3.392C71.8615 3.12533 72.0695 2.91467 72.3521 2.76C72.6348 2.6 72.9388 2.52 73.2641 2.52ZM78.0148 4.776C78.0148 4.33333 78.1054 3.94133 78.2868 3.6C78.4734 3.25867 78.7241 2.99467 79.0388 2.808C79.3588 2.616 79.7134 2.52 80.1028 2.52C80.3908 2.52 80.6734 2.584 80.9508 2.712C81.2334 2.83467 81.4574 3 81.6228 3.208V1.08H82.5428V7H81.6228V6.336C81.4734 6.54933 81.2654 6.72533 80.9988 6.864C80.7374 7.00267 80.4361 7.072 80.0948 7.072C79.7108 7.072 79.3588 6.976 79.0388 6.784C78.7241 6.58667 78.4734 6.31467 78.2868 5.968C78.1054 5.616 78.0148 5.21867 78.0148 4.776ZM81.6228 4.792C81.6228 4.488 81.5588 4.224 81.4308 4C81.3081 3.776 81.1454 3.60533 80.9428 3.488C80.7401 3.37067 80.5214 3.312 80.2868 3.312C80.0521 3.312 79.8334 3.37067 79.6308 3.488C79.4281 3.6 79.2628 3.768 79.1348 3.992C79.0121 4.21067 78.9508 4.472 78.9508 4.776C78.9508 5.08 79.0121 5.34667 79.1348 5.576C79.2628 5.80533 79.4281 5.98133 79.6308 6.104C79.8388 6.22133 80.0574 6.28 80.2868 6.28C80.5214 6.28 80.7401 6.22133 80.9428 6.104C81.1454 5.98667 81.3081 5.816 81.4308 5.592C81.5588 5.36267 81.6228 5.096 81.6228 4.792ZM87.7806 4.688C87.7806 4.85333 87.77 5.00267 87.7486 5.136H84.3806C84.4073 5.488 84.538 5.77067 84.7726 5.984C85.0073 6.19733 85.2953 6.304 85.6366 6.304C86.1273 6.304 86.474 6.09867 86.6766 5.688H87.6606C87.5273 6.09333 87.2846 6.42667 86.9326 6.688C86.586 6.944 86.154 7.072 85.6366 7.072C85.2153 7.072 84.8366 6.97867 84.5006 6.792C84.17 6.6 83.9086 6.33333 83.7166 5.992C83.53 5.64533 83.4366 5.24533 83.4366 4.792C83.4366 4.33867 83.5273 3.94133 83.7086 3.6C83.8953 3.25333 84.154 2.98667 84.4846 2.8C84.8206 2.61333 85.2046 2.52 85.6366 2.52C86.0526 2.52 86.4233 2.61067 86.7486 2.792C87.074 2.97333 87.3273 3.22933 87.5086 3.56C87.69 3.88533 87.7806 4.26133 87.7806 4.688ZM86.8286 4.4C86.8233 4.064 86.7033 3.79467 86.4686 3.592C86.234 3.38933 85.9433 3.288 85.5966 3.288C85.282 3.288 85.0126 3.38933 84.7886 3.592C84.5646 3.78933 84.4313 4.05867 84.3886 4.4H86.8286ZM90.2781 7.072C89.9315 7.072 89.6195 7.01067 89.3421 6.888C89.0701 6.76 88.8541 6.58933 88.6941 6.376C88.5341 6.15733 88.4488 5.91467 88.4381 5.648H89.3821C89.3981 5.83467 89.4861 5.992 89.6461 6.12C89.8115 6.24267 90.0168 6.304 90.2621 6.304C90.5181 6.304 90.7155 6.256 90.8541 6.16C90.9981 6.05867 91.0701 5.93067 91.0701 5.776C91.0701 5.61067 90.9901 5.488 90.8301 5.408C90.6755 5.328 90.4275 5.24 90.0861 5.144C89.7555 5.05333 89.4861 4.96533 89.2781 4.88C89.0701 4.79467 88.8888 4.664 88.7341 4.488C88.5848 4.312 88.5101 4.08 88.5101 3.792C88.5101 3.55733 88.5795 3.344 88.7181 3.152C88.8568 2.95467 89.0541 2.8 89.3101 2.688C89.5715 2.576 89.8701 2.52 90.2061 2.52C90.7075 2.52 91.1101 2.648 91.4141 2.904C91.7235 3.15467 91.8888 3.49867 91.9101 3.936H90.9981C90.9821 3.73867 90.9021 3.58133 90.7581 3.464C90.6141 3.34667 90.4195 3.288 90.1741 3.288C89.9341 3.288 89.7501 3.33333 89.6221 3.424C89.4941 3.51467 89.4301 3.63467 89.4301 3.784C89.4301 3.90133 89.4728 4 89.5581 4.08C89.6435 4.16 89.7475 4.224 89.8701 4.272C89.9928 4.31467 90.1741 4.37067 90.4141 4.44C90.7341 4.52533 90.9955 4.61333 91.1981 4.704C91.4061 4.78933 91.5848 4.91733 91.7341 5.088C91.8835 5.25867 91.9608 5.48533 91.9661 5.768C91.9661 6.01867 91.8968 6.24267 91.7581 6.44C91.6195 6.63733 91.4221 6.792 91.1661 6.904C90.9155 7.016 90.6195 7.072 90.2781 7.072ZM93.4156 2.008C93.2502 2.008 93.1116 1.952 92.9996 1.84C92.8876 1.728 92.8316 1.58933 92.8316 1.424C92.8316 1.25867 92.8876 1.12 92.9996 1.008C93.1116 0.896 93.2502 0.84 93.4156 0.84C93.5756 0.84 93.7116 0.896 93.8236 1.008C93.9356 1.12 93.9916 1.25867 93.9916 1.424C93.9916 1.58933 93.9356 1.728 93.8236 1.84C93.7116 1.952 93.5756 2.008 93.4156 2.008ZM93.8636 2.592V7H92.9516V2.592H93.8636ZM96.8369 2.52C97.1783 2.52 97.4796 2.58933 97.7409 2.728C98.0076 2.86133 98.2156 3.02933 98.3649 3.232V2.592H99.2849V7.072C99.2849 7.47733 99.1996 7.83733 99.0289 8.152C98.8583 8.472 98.6103 8.72267 98.2849 8.904C97.9649 9.08533 97.5809 9.176 97.1329 9.176C96.5356 9.176 96.0396 9.03467 95.6449 8.752C95.2503 8.47467 95.0263 8.096 94.9729 7.616H95.8769C95.9463 7.84533 96.0929 8.02933 96.3169 8.168C96.5463 8.312 96.8183 8.384 97.1329 8.384C97.5009 8.384 97.7969 8.272 98.0209 8.048C98.2503 7.824 98.3649 7.49867 98.3649 7.072V6.336C98.2103 6.544 97.9996 6.72 97.7329 6.864C97.4716 7.00267 97.1729 7.072 96.8369 7.072C96.4529 7.072 96.1009 6.976 95.7809 6.784C95.4663 6.58667 95.2156 6.31467 95.0289 5.968C94.8476 5.616 94.7569 5.21867 94.7569 4.776C94.7569 4.33333 94.8476 3.94133 95.0289 3.6C95.2156 3.25867 95.4663 2.99467 95.7809 2.808C96.1009 2.616 96.4529 2.52 96.8369 2.52ZM98.3649 4.792C98.3649 4.488 98.3009 4.224 98.1729 4C98.0503 3.776 97.8876 3.60533 97.6849 3.488C97.4823 3.37067 97.2636 3.312 97.0289 3.312C96.7943 3.312 96.5756 3.37067 96.3729 3.488C96.1703 3.6 96.0049 3.768 95.8769 3.992C95.7543 4.21067 95.6929 4.472 95.6929 4.776C95.6929 5.08 95.7543 5.34667 95.8769 5.576C96.0049 5.80533 96.1703 5.98133 96.3729 6.104C96.5809 6.22133 96.7996 6.28 97.0289 6.28C97.2636 6.28 97.4823 6.22133 97.6849 6.104C97.8876 5.98667 98.0503 5.816 98.1729 5.592C98.3009 5.36267 98.3649 5.096 98.3649 4.792ZM102.707 2.52C103.053 2.52 103.363 2.592 103.635 2.736C103.912 2.88 104.128 3.09333 104.283 3.376C104.437 3.65867 104.515 4 104.515 4.4V7H103.611V4.536C103.611 4.14133 103.512 3.84 103.315 3.632C103.117 3.41867 102.848 3.312 102.507 3.312C102.165 3.312 101.893 3.41867 101.691 3.632C101.493 3.84 101.395 4.14133 101.395 4.536V7H100.483V2.592H101.395V3.096C101.544 2.91467 101.733 2.77333 101.963 2.672C102.197 2.57067 102.445 2.52 102.707 2.52ZM109.604 3.336H108.788V7H107.868V3.336H107.348V2.592H107.868V2.28C107.868 1.77333 108.002 1.40533 108.268 1.176C108.54 0.941333 108.964 0.824 109.54 0.824V1.584C109.263 1.584 109.068 1.63733 108.956 1.744C108.844 1.84533 108.788 2.024 108.788 2.28V2.592H109.604V3.336ZM112.325 7.072C111.909 7.072 111.533 6.97867 111.197 6.792C110.861 6.6 110.597 6.33333 110.405 5.992C110.213 5.64533 110.117 5.24533 110.117 4.792C110.117 4.344 110.215 3.94667 110.413 3.6C110.61 3.25333 110.879 2.98667 111.221 2.8C111.562 2.61333 111.943 2.52 112.365 2.52C112.786 2.52 113.167 2.61333 113.509 2.8C113.85 2.98667 114.119 3.25333 114.317 3.6C114.514 3.94667 114.613 4.344 114.613 4.792C114.613 5.24 114.511 5.63733 114.309 5.984C114.106 6.33067 113.829 6.6 113.477 6.792C113.13 6.97867 112.746 7.072 112.325 7.072ZM112.325 6.28C112.559 6.28 112.778 6.224 112.981 6.112C113.189 6 113.357 5.832 113.485 5.608C113.613 5.384 113.677 5.112 113.677 4.792C113.677 4.472 113.615 4.20267 113.493 3.984C113.37 3.76 113.207 3.592 113.005 3.48C112.802 3.368 112.583 3.312 112.349 3.312C112.114 3.312 111.895 3.368 111.693 3.48C111.495 3.592 111.338 3.76 111.221 3.984C111.103 4.20267 111.045 4.472 111.045 4.792C111.045 5.26667 111.165 5.63467 111.405 5.896C111.65 6.152 111.957 6.28 112.325 6.28ZM116.426 3.232C116.559 3.008 116.735 2.83467 116.954 2.712C117.178 2.584 117.442 2.52 117.746 2.52V3.464H117.514C117.157 3.464 116.885 3.55467 116.698 3.736C116.517 3.91733 116.426 4.232 116.426 4.68V7H115.514V2.592H116.426V3.232ZM125.999 2.52C126.345 2.52 126.655 2.592 126.927 2.736C127.204 2.88 127.42 3.09333 127.575 3.376C127.735 3.65867 127.815 4 127.815 4.4V7H126.911V4.536C126.911 4.14133 126.812 3.84 126.615 3.632C126.417 3.41867 126.148 3.312 125.807 3.312C125.465 3.312 125.193 3.41867 124.991 3.632C124.793 3.84 124.695 4.14133 124.695 4.536V7H123.791V4.536C123.791 4.14133 123.692 3.84 123.495 3.632C123.297 3.41867 123.028 3.312 122.687 3.312C122.345 3.312 122.073 3.41867 121.871 3.632C121.673 3.84 121.575 4.14133 121.575 4.536V7H120.663V2.592H121.575V3.096C121.724 2.91467 121.913 2.77333 122.143 2.672C122.372 2.57067 122.617 2.52 122.879 2.52C123.231 2.52 123.545 2.59467 123.823 2.744C124.1 2.89333 124.313 3.10933 124.463 3.392C124.596 3.12533 124.804 2.91467 125.087 2.76C125.369 2.6 125.673 2.52 125.999 2.52ZM132.943 2.592L130.239 9.072H129.295L130.191 6.928L128.455 2.592H129.471L130.711 5.952L131.999 2.592H132.943ZM137.309 7.072C136.963 7.072 136.651 7.01067 136.373 6.888C136.101 6.76 135.885 6.58933 135.725 6.376C135.565 6.15733 135.48 5.91467 135.469 5.648H136.413C136.429 5.83467 136.517 5.992 136.677 6.12C136.843 6.24267 137.048 6.304 137.293 6.304C137.549 6.304 137.747 6.256 137.885 6.16C138.029 6.05867 138.101 5.93067 138.101 5.776C138.101 5.61067 138.021 5.488 137.861 5.408C137.707 5.328 137.459 5.24 137.117 5.144C136.787 5.05333 136.517 4.96533 136.309 4.88C136.101 4.79467 135.92 4.664 135.765 4.488C135.616 4.312 135.541 4.08 135.541 3.792C135.541 3.55733 135.611 3.344 135.749 3.152C135.888 2.95467 136.085 2.8 136.341 2.688C136.603 2.576 136.901 2.52 137.237 2.52C137.739 2.52 138.141 2.648 138.445 2.904C138.755 3.15467 138.92 3.49867 138.941 3.936H138.029C138.013 3.73867 137.933 3.58133 137.789 3.464C137.645 3.34667 137.451 3.288 137.205 3.288C136.965 3.288 136.781 3.33333 136.653 3.424C136.525 3.51467 136.461 3.63467 136.461 3.784C136.461 3.90133 136.504 4 136.589 4.08C136.675 4.16 136.779 4.224 136.901 4.272C137.024 4.31467 137.205 4.37067 137.445 4.44C137.765 4.52533 138.027 4.61333 138.229 4.704C138.437 4.78933 138.616 4.91733 138.765 5.088C138.915 5.25867 138.992 5.48533 138.997 5.768C138.997 6.01867 138.928 6.24267 138.789 6.44C138.651 6.63733 138.453 6.792 138.197 6.904C137.947 7.016 137.651 7.072 137.309 7.072ZM139.679 4.792C139.679 4.33867 139.769 3.94133 139.951 3.6C140.137 3.25333 140.393 2.98667 140.719 2.8C141.044 2.61333 141.417 2.52 141.839 2.52C142.372 2.52 142.812 2.648 143.159 2.904C143.511 3.15467 143.748 3.51467 143.871 3.984H142.887C142.807 3.76533 142.679 3.59467 142.503 3.472C142.327 3.34933 142.105 3.288 141.839 3.288C141.465 3.288 141.167 3.42133 140.943 3.688C140.724 3.94933 140.615 4.31733 140.615 4.792C140.615 5.26667 140.724 5.63733 140.943 5.904C141.167 6.17067 141.465 6.304 141.839 6.304C142.367 6.304 142.716 6.072 142.887 5.608H143.871C143.743 6.056 143.503 6.41333 143.151 6.68C142.799 6.94133 142.361 7.072 141.839 7.072C141.417 7.072 141.044 6.97867 140.719 6.792C140.393 6.6 140.137 6.33333 139.951 5.992C139.769 5.64533 139.679 5.24533 139.679 4.792ZM147.06 2.52C147.396 2.52 147.694 2.592 147.956 2.736C148.222 2.88 148.43 3.09333 148.58 3.376C148.734 3.65867 148.812 4 148.812 4.4V7H147.908V4.536C147.908 4.14133 147.809 3.84 147.612 3.632C147.414 3.41867 147.145 3.312 146.804 3.312C146.462 3.312 146.19 3.41867 145.988 3.632C145.79 3.84 145.692 4.14133 145.692 4.536V7H144.78V1.08H145.692V3.104C145.846 2.91733 146.041 2.77333 146.276 2.672C146.516 2.57067 146.777 2.52 147.06 2.52ZM151.887 7.072C151.471 7.072 151.095 6.97867 150.759 6.792C150.423 6.6 150.159 6.33333 149.967 5.992C149.775 5.64533 149.679 5.24533 149.679 4.792C149.679 4.344 149.778 3.94667 149.975 3.6C150.172 3.25333 150.442 2.98667 150.783 2.8C151.124 2.61333 151.506 2.52 151.927 2.52C152.348 2.52 152.73 2.61333 153.071 2.8C153.412 2.98667 153.682 3.25333 153.879 3.6C154.076 3.94667 154.175 4.344 154.175 4.792C154.175 5.24 154.074 5.63733 153.871 5.984C153.668 6.33067 153.391 6.6 153.039 6.792C152.692 6.97867 152.308 7.072 151.887 7.072ZM151.887 6.28C152.122 6.28 152.34 6.224 152.543 6.112C152.751 6 152.919 5.832 153.047 5.608C153.175 5.384 153.239 5.112 153.239 4.792C153.239 4.472 153.178 4.20267 153.055 3.984C152.932 3.76 152.77 3.592 152.567 3.48C152.364 3.368 152.146 3.312 151.911 3.312C151.676 3.312 151.458 3.368 151.255 3.48C151.058 3.592 150.9 3.76 150.783 3.984C150.666 4.20267 150.607 4.472 150.607 4.792C150.607 5.26667 150.727 5.63467 150.967 5.896C151.212 6.152 151.519 6.28 151.887 6.28ZM156.989 7.072C156.573 7.072 156.197 6.97867 155.861 6.792C155.525 6.6 155.261 6.33333 155.069 5.992C154.877 5.64533 154.781 5.24533 154.781 4.792C154.781 4.344 154.879 3.94667 155.077 3.6C155.274 3.25333 155.543 2.98667 155.885 2.8C156.226 2.61333 156.607 2.52 157.029 2.52C157.45 2.52 157.831 2.61333 158.173 2.8C158.514 2.98667 158.783 3.25333 158.981 3.6C159.178 3.94667 159.277 4.344 159.277 4.792C159.277 5.24 159.175 5.63733 158.973 5.984C158.77 6.33067 158.493 6.6 158.141 6.792C157.794 6.97867 157.41 7.072 156.989 7.072ZM156.989 6.28C157.223 6.28 157.442 6.224 157.645 6.112C157.853 6 158.021 5.832 158.149 5.608C158.277 5.384 158.341 5.112 158.341 4.792C158.341 4.472 158.279 4.20267 158.157 3.984C158.034 3.76 157.871 3.592 157.669 3.48C157.466 3.368 157.247 3.312 157.013 3.312C156.778 3.312 156.559 3.368 156.357 3.48C156.159 3.592 156.002 3.76 155.885 3.984C155.767 4.20267 155.709 4.472 155.709 4.792C155.709 5.26667 155.829 5.63467 156.069 5.896C156.314 6.152 156.621 6.28 156.989 6.28ZM161.09 1.08V7H160.178V1.08H161.09ZM165.278 3.24C165.432 3.03733 165.643 2.86667 165.91 2.728C166.176 2.58933 166.478 2.52 166.814 2.52C167.198 2.52 167.547 2.616 167.862 2.808C168.182 2.99467 168.432 3.25867 168.614 3.6C168.795 3.94133 168.886 4.33333 168.886 4.776C168.886 5.21867 168.795 5.616 168.614 5.968C168.432 6.31467 168.182 6.58667 167.862 6.784C167.547 6.976 167.198 7.072 166.814 7.072C166.478 7.072 166.179 7.00533 165.918 6.872C165.656 6.73333 165.443 6.56267 165.278 6.36V9.096H164.366V2.592H165.278V3.24ZM167.958 4.776C167.958 4.472 167.894 4.21067 167.766 3.992C167.643 3.768 167.478 3.6 167.27 3.488C167.067 3.37067 166.848 3.312 166.614 3.312C166.384 3.312 166.166 3.37067 165.958 3.488C165.755 3.60533 165.59 3.776 165.462 4C165.339 4.224 165.278 4.488 165.278 4.792C165.278 5.096 165.339 5.36267 165.462 5.592C165.59 5.816 165.755 5.98667 165.958 6.104C166.166 6.22133 166.384 6.28 166.614 6.28C166.848 6.28 167.067 6.22133 167.27 6.104C167.478 5.98133 167.643 5.80533 167.766 5.576C167.894 5.34667 167.958 5.08 167.958 4.776ZM170.7 3.232C170.833 3.008 171.009 2.83467 171.228 2.712C171.452 2.584 171.716 2.52 172.02 2.52V3.464H171.788C171.43 3.464 171.158 3.55467 170.972 3.736C170.79 3.91733 170.7 4.232 170.7 4.68V7H169.788V2.592H170.7V3.232ZM174.77 7.072C174.354 7.072 173.978 6.97867 173.642 6.792C173.306 6.6 173.042 6.33333 172.85 5.992C172.658 5.64533 172.562 5.24533 172.562 4.792C172.562 4.344 172.66 3.94667 172.858 3.6C173.055 3.25333 173.324 2.98667 173.666 2.8C174.007 2.61333 174.388 2.52 174.81 2.52C175.231 2.52 175.612 2.61333 175.954 2.8C176.295 2.98667 176.564 3.25333 176.762 3.6C176.959 3.94667 177.058 4.344 177.058 4.792C177.058 5.24 176.956 5.63733 176.754 5.984C176.551 6.33067 176.274 6.6 175.922 6.792C175.575 6.97867 175.191 7.072 174.77 7.072ZM174.77 6.28C175.004 6.28 175.223 6.224 175.426 6.112C175.634 6 175.802 5.832 175.93 5.608C176.058 5.384 176.122 5.112 176.122 4.792C176.122 4.472 176.06 4.20267 175.938 3.984C175.815 3.76 175.652 3.592 175.45 3.48C175.247 3.368 175.028 3.312 174.794 3.312C174.559 3.312 174.34 3.368 174.138 3.48C173.94 3.592 173.783 3.76 173.666 3.984C173.548 4.20267 173.49 4.472 173.49 4.792C173.49 5.26667 173.61 5.63467 173.85 5.896C174.095 6.152 174.402 6.28 174.77 6.28ZM178.423 2.008C178.258 2.008 178.119 1.952 178.007 1.84C177.895 1.728 177.839 1.58933 177.839 1.424C177.839 1.25867 177.895 1.12 178.007 1.008C178.119 0.896 178.258 0.84 178.423 0.84C178.583 0.84 178.719 0.896 178.831 1.008C178.943 1.12 178.999 1.25867 178.999 1.424C178.999 1.58933 178.943 1.728 178.831 1.84C178.719 1.952 178.583 2.008 178.423 2.008ZM178.871 7.864C178.871 8.296 178.762 8.608 178.543 8.8C178.33 8.99733 178.018 9.096 177.607 9.096H177.135V8.328H177.447C177.634 8.328 177.765 8.29067 177.839 8.216C177.919 8.14667 177.959 8.02933 177.959 7.864V2.592H178.871V7.864ZM184.109 4.688C184.109 4.85333 184.098 5.00267 184.077 5.136H180.709C180.735 5.488 180.866 5.77067 181.101 5.984C181.335 6.19733 181.623 6.304 181.965 6.304C182.455 6.304 182.802 6.09867 183.005 5.688H183.989C183.855 6.09333 183.613 6.42667 183.261 6.688C182.914 6.944 182.482 7.072 181.965 7.072C181.543 7.072 181.165 6.97867 180.829 6.792C180.498 6.6 180.237 6.33333 180.045 5.992C179.858 5.64533 179.765 5.24533 179.765 4.792C179.765 4.33867 179.855 3.94133 180.037 3.6C180.223 3.25333 180.482 2.98667 180.813 2.8C181.149 2.61333 181.533 2.52 181.965 2.52C182.381 2.52 182.751 2.61067 183.077 2.792C183.402 2.97333 183.655 3.22933 183.837 3.56C184.018 3.88533 184.109 4.26133 184.109 4.688ZM183.157 4.4C183.151 4.064 183.031 3.79467 182.797 3.592C182.562 3.38933 182.271 3.288 181.925 3.288C181.61 3.288 181.341 3.38933 181.117 3.592C180.893 3.78933 180.759 4.05867 180.717 4.4H183.157ZM184.702 4.792C184.702 4.33867 184.793 3.94133 184.974 3.6C185.161 3.25333 185.417 2.98667 185.742 2.8C186.068 2.61333 186.441 2.52 186.862 2.52C187.396 2.52 187.836 2.648 188.182 2.904C188.534 3.15467 188.772 3.51467 188.894 3.984H187.91C187.83 3.76533 187.702 3.59467 187.526 3.472C187.35 3.34933 187.129 3.288 186.862 3.288C186.489 3.288 186.19 3.42133 185.966 3.688C185.748 3.94933 185.638 4.31733 185.638 4.792C185.638 5.26667 185.748 5.63733 185.966 5.904C186.19 6.17067 186.489 6.304 186.862 6.304C187.39 6.304 187.74 6.072 187.91 5.608H188.894C188.766 6.056 188.526 6.41333 188.174 6.68C187.822 6.94133 187.385 7.072 186.862 7.072C186.441 7.072 186.068 6.97867 185.742 6.792C185.417 6.6 185.161 6.33333 184.974 5.992C184.793 5.64533 184.702 5.24533 184.702 4.792ZM190.867 3.336V5.776C190.867 5.94133 190.904 6.06133 190.979 6.136C191.059 6.20533 191.192 6.24 191.379 6.24H191.939V7H191.219C190.808 7 190.494 6.904 190.275 6.712C190.056 6.52 189.947 6.208 189.947 5.776V3.336H189.427V2.592H189.947V1.496H190.867V2.592H191.939V3.336H190.867ZM198.85 2.592V7H197.938V6.48C197.794 6.66133 197.604 6.80533 197.37 6.912C197.14 7.01333 196.895 7.064 196.634 7.064C196.287 7.064 195.975 6.992 195.698 6.848C195.426 6.704 195.21 6.49067 195.05 6.208C194.895 5.92533 194.818 5.584 194.818 5.184V2.592H195.722V5.048C195.722 5.44267 195.82 5.74667 196.018 5.96C196.215 6.168 196.484 6.272 196.826 6.272C197.167 6.272 197.436 6.168 197.634 5.96C197.836 5.74667 197.938 5.44267 197.938 5.048V2.592H198.85ZM201.653 7.072C201.306 7.072 200.994 7.01067 200.717 6.888C200.445 6.76 200.229 6.58933 200.069 6.376C199.909 6.15733 199.824 5.91467 199.813 5.648H200.757C200.773 5.83467 200.861 5.992 201.021 6.12C201.186 6.24267 201.392 6.304 201.637 6.304C201.893 6.304 202.09 6.256 202.229 6.16C202.373 6.05867 202.445 5.93067 202.445 5.776C202.445 5.61067 202.365 5.488 202.205 5.408C202.05 5.328 201.802 5.24 201.461 5.144C201.13 5.05333 200.861 4.96533 200.653 4.88C200.445 4.79467 200.264 4.664 200.109 4.488C199.96 4.312 199.885 4.08 199.885 3.792C199.885 3.55733 199.954 3.344 200.093 3.152C200.232 2.95467 200.429 2.8 200.685 2.688C200.946 2.576 201.245 2.52 201.581 2.52C202.082 2.52 202.485 2.648 202.789 2.904C203.098 3.15467 203.264 3.49867 203.285 3.936H202.373C202.357 3.73867 202.277 3.58133 202.133 3.464C201.989 3.34667 201.794 3.288 201.549 3.288C201.309 3.288 201.125 3.33333 200.997 3.424C200.869 3.51467 200.805 3.63467 200.805 3.784C200.805 3.90133 200.848 4 200.933 4.08C201.018 4.16 201.122 4.224 201.245 4.272C201.368 4.31467 201.549 4.37067 201.789 4.44C202.109 4.52533 202.37 4.61333 202.573 4.704C202.781 4.78933 202.96 4.91733 203.109 5.088C203.258 5.25867 203.336 5.48533 203.341 5.768C203.341 6.01867 203.272 6.24267 203.133 6.44C202.994 6.63733 202.797 6.792 202.541 6.904C202.29 7.016 201.994 7.072 201.653 7.072ZM204.791 2.008C204.625 2.008 204.487 1.952 204.375 1.84C204.263 1.728 204.207 1.58933 204.207 1.424C204.207 1.25867 204.263 1.12 204.375 1.008C204.487 0.896 204.625 0.84 204.791 0.84C204.951 0.84 205.087 0.896 205.199 1.008C205.311 1.12 205.367 1.25867 205.367 1.424C205.367 1.58933 205.311 1.728 205.199 1.84C205.087 1.952 204.951 2.008 204.791 2.008ZM205.239 2.592V7H204.327V2.592H205.239ZM208.66 2.52C209.007 2.52 209.316 2.592 209.588 2.736C209.865 2.88 210.081 3.09333 210.236 3.376C210.391 3.65867 210.468 4 210.468 4.4V7H209.564V4.536C209.564 4.14133 209.465 3.84 209.268 3.632C209.071 3.41867 208.801 3.312 208.46 3.312C208.119 3.312 207.847 3.41867 207.644 3.632C207.447 3.84 207.348 4.14133 207.348 4.536V7H206.436V2.592H207.348V3.096C207.497 2.91467 207.687 2.77333 207.916 2.672C208.151 2.57067 208.399 2.52 208.66 2.52ZM213.407 2.52C213.749 2.52 214.05 2.58933 214.311 2.728C214.578 2.86133 214.786 3.02933 214.935 3.232V2.592H215.855V7.072C215.855 7.47733 215.77 7.83733 215.599 8.152C215.429 8.472 215.181 8.72267 214.855 8.904C214.535 9.08533 214.151 9.176 213.703 9.176C213.106 9.176 212.61 9.03467 212.215 8.752C211.821 8.47467 211.597 8.096 211.543 7.616H212.447C212.517 7.84533 212.663 8.02933 212.887 8.168C213.117 8.312 213.389 8.384 213.703 8.384C214.071 8.384 214.367 8.272 214.591 8.048C214.821 7.824 214.935 7.49867 214.935 7.072V6.336C214.781 6.544 214.57 6.72 214.303 6.864C214.042 7.00267 213.743 7.072 213.407 7.072C213.023 7.072 212.671 6.976 212.351 6.784C212.037 6.58667 211.786 6.31467 211.599 5.968C211.418 5.616 211.327 5.21867 211.327 4.776C211.327 4.33333 211.418 3.94133 211.599 3.6C211.786 3.25867 212.037 2.99467 212.351 2.808C212.671 2.616 213.023 2.52 213.407 2.52ZM214.935 4.792C214.935 4.488 214.871 4.224 214.743 4C214.621 3.776 214.458 3.60533 214.255 3.488C214.053 3.37067 213.834 3.312 213.599 3.312C213.365 3.312 213.146 3.37067 212.943 3.488C212.741 3.6 212.575 3.768 212.447 3.992C212.325 4.21067 212.263 4.472 212.263 4.776C212.263 5.08 212.325 5.34667 212.447 5.576C212.575 5.80533 212.741 5.98133 212.943 6.104C213.151 6.22133 213.37 6.28 213.599 6.28C213.834 6.28 214.053 6.22133 214.255 6.104C214.458 5.98667 214.621 5.816 214.743 5.592C214.871 5.36267 214.935 5.096 214.935 4.792ZM3.952 16.864H1.624L1.224 18H0.272L2.264 12.432H3.32L5.312 18H4.352L3.952 16.864ZM3.696 16.12L2.792 13.536L1.88 16.12H3.696ZM8.06613 15.768L9.49013 18H8.45813L7.50613 16.504L6.61013 18H5.65813L7.08213 15.832L5.65813 13.592H6.69013L7.64213 15.088L8.53813 13.592H9.49013L8.06613 15.768ZM14.1623 13.592V18H13.2503V17.48C13.1063 17.6613 12.917 17.8053 12.6823 17.912C12.453 18.0133 12.2076 18.064 11.9463 18.064C11.5996 18.064 11.2876 17.992 11.0103 17.848C10.7383 17.704 10.5223 17.4907 10.3623 17.208C10.2076 16.9253 10.1303 16.584 10.1303 16.184V13.592H11.0343V16.048C11.0343 16.4427 11.133 16.7467 11.3303 16.96C11.5276 17.168 11.797 17.272 12.1383 17.272C12.4796 17.272 12.749 17.168 12.9463 16.96C13.149 16.7467 13.2503 16.4427 13.2503 16.048V13.592H14.1623ZM16.2776 14.232C16.411 14.008 16.587 13.8347 16.8056 13.712C17.0296 13.584 17.2936 13.52 17.5976 13.52V14.464H17.3656C17.0083 14.464 16.7363 14.5547 16.5496 14.736C16.3683 14.9173 16.2776 15.232 16.2776 15.68V18H15.3656V13.592H16.2776V14.232ZM22.4759 15.688C22.4759 15.8533 22.4653 16.0027 22.4439 16.136H19.0759C19.1026 16.488 19.2333 16.7707 19.4679 16.984C19.7026 17.1973 19.9906 17.304 20.3319 17.304C20.8226 17.304 21.1693 17.0987 21.3719 16.688H22.3559C22.2226 17.0933 21.9799 17.4267 21.6279 17.688C21.2813 17.944 20.8493 18.072 20.3319 18.072C19.9106 18.072 19.5319 17.9787 19.1959 17.792C18.8653 17.6 18.6039 17.3333 18.4119 16.992C18.2253 16.6453 18.1319 16.2453 18.1319 15.792C18.1319 15.3387 18.2226 14.9413 18.4039 14.6C18.5906 14.2533 18.8493 13.9867 19.1799 13.8C19.5159 13.6133 19.8999 13.52 20.3319 13.52C20.7479 13.52 21.1186 13.6107 21.4439 13.792C21.7693 13.9733 22.0226 14.2293 22.2039 14.56C22.3853 14.8853 22.4759 15.2613 22.4759 15.688ZM21.5239 15.4C21.5186 15.064 21.3986 14.7947 21.1639 14.592C20.9293 14.3893 20.6386 14.288 20.2919 14.288C19.9773 14.288 19.7079 14.3893 19.4839 14.592C19.2599 14.7893 19.1266 15.0587 19.0839 15.4H21.5239ZM28.3396 18L27.0596 15.776H26.3636V18H25.4516V12.44H27.3716C27.7982 12.44 28.1582 12.5147 28.4516 12.664C28.7502 12.8133 28.9716 13.0133 29.1156 13.264C29.2649 13.5147 29.3396 13.7947 29.3396 14.104C29.3396 14.4667 29.2329 14.7973 29.0196 15.096C28.8116 15.3893 28.4889 15.5893 28.0516 15.696L29.4276 18H28.3396ZM26.3636 15.048H27.3716C27.7129 15.048 27.9689 14.9627 28.1396 14.792C28.3156 14.6213 28.4036 14.392 28.4036 14.104C28.4036 13.816 28.3182 13.592 28.1476 13.432C27.9769 13.2667 27.7182 13.184 27.3716 13.184H26.3636V15.048ZM34.3943 14.096C34.3943 14.3787 34.3276 14.6453 34.1943 14.896C34.0609 15.1467 33.8476 15.352 33.5543 15.512C33.2609 15.6667 32.8849 15.744 32.4263 15.744H31.4183V18H30.5063V12.44H32.4263C32.8529 12.44 33.2129 12.5147 33.5063 12.664C33.8049 12.808 34.0263 13.0053 34.1703 13.256C34.3196 13.5067 34.3943 13.7867 34.3943 14.096ZM32.4263 15C32.7729 15 33.0316 14.9227 33.2023 14.768C33.3729 14.608 33.4583 14.384 33.4583 14.096C33.4583 13.488 33.1143 13.184 32.4263 13.184H31.4183V15H32.4263ZM37.0382 15.776C37.0382 15.3333 37.1289 14.9413 37.3102 14.6C37.4969 14.2587 37.7475 13.9947 38.0622 13.808C38.3822 13.616 38.7342 13.52 39.1182 13.52C39.4649 13.52 39.7662 13.5893 40.0222 13.728C40.2835 13.8613 40.4915 14.0293 40.6462 14.232V13.592H41.5662V18H40.6462V17.344C40.4915 17.552 40.2809 17.7253 40.0142 17.864C39.7475 18.0027 39.4435 18.072 39.1022 18.072C38.7235 18.072 38.3769 17.976 38.0622 17.784C37.7475 17.5867 37.4969 17.3147 37.3102 16.968C37.1289 16.616 37.0382 16.2187 37.0382 15.776ZM40.6462 15.792C40.6462 15.488 40.5822 15.224 40.4542 15C40.3315 14.776 40.1689 14.6053 39.9662 14.488C39.7635 14.3707 39.5449 14.312 39.3102 14.312C39.0755 14.312 38.8569 14.3707 38.6542 14.488C38.4515 14.6 38.2862 14.768 38.1582 14.992C38.0355 15.2107 37.9742 15.472 37.9742 15.776C37.9742 16.08 38.0355 16.3467 38.1582 16.576C38.2862 16.8053 38.4515 16.9813 38.6542 17.104C38.8622 17.2213 39.0809 17.28 39.3102 17.28C39.5449 17.28 39.7635 17.2213 39.9662 17.104C40.1689 16.9867 40.3315 16.816 40.4542 16.592C40.5822 16.3627 40.6462 16.096 40.6462 15.792ZM44.9881 13.52C45.3347 13.52 45.6441 13.592 45.9161 13.736C46.1934 13.88 46.4094 14.0933 46.5641 14.376C46.7187 14.6587 46.7961 15 46.7961 15.4V18H45.8921V15.536C45.8921 15.1413 45.7934 14.84 45.5961 14.632C45.3987 14.4187 45.1294 14.312 44.7881 14.312C44.4467 14.312 44.1747 14.4187 43.9721 14.632C43.7747 14.84 43.6761 15.1413 43.6761 15.536V18H42.7641V13.592H43.6761V14.096C43.8254 13.9147 44.0147 13.7733 44.2441 13.672C44.4787 13.5707 44.7267 13.52 44.9881 13.52ZM47.6554 15.776C47.6554 15.3333 47.746 14.9413 47.9274 14.6C48.114 14.2587 48.3647 13.9947 48.6794 13.808C48.9994 13.616 49.354 13.52 49.7434 13.52C50.0314 13.52 50.314 13.584 50.5914 13.712C50.874 13.8347 51.098 14 51.2634 14.208V12.08H52.1834V18H51.2634V17.336C51.114 17.5493 50.906 17.7253 50.6394 17.864C50.378 18.0027 50.0767 18.072 49.7354 18.072C49.3514 18.072 48.9994 17.976 48.6794 17.784C48.3647 17.5867 48.114 17.3147 47.9274 16.968C47.746 16.616 47.6554 16.2187 47.6554 15.776ZM51.2634 15.792C51.2634 15.488 51.1994 15.224 51.0714 15C50.9487 14.776 50.786 14.6053 50.5834 14.488C50.3807 14.3707 50.162 14.312 49.9274 14.312C49.6927 14.312 49.474 14.3707 49.2714 14.488C49.0687 14.6 48.9034 14.768 48.7754 14.992C48.6527 15.2107 48.5914 15.472 48.5914 15.776C48.5914 16.08 48.6527 16.3467 48.7754 16.576C48.9034 16.8053 49.0687 16.9813 49.2714 17.104C49.4794 17.2213 49.698 17.28 49.9274 17.28C50.162 17.28 50.3807 17.2213 50.5834 17.104C50.786 16.9867 50.9487 16.816 51.0714 16.592C51.1994 16.3627 51.2634 16.096 51.2634 15.792ZM58.8114 16.864H56.4834L56.0834 18H55.1314L57.1234 12.432H58.1794L60.1714 18H59.2114L58.8114 16.864ZM58.5554 16.12L57.6514 13.536L56.7394 16.12H58.5554ZM60.7335 15.776C60.7335 15.3333 60.8242 14.9413 61.0055 14.6C61.1922 14.2587 61.4428 13.9947 61.7575 13.808C62.0775 13.616 62.4322 13.52 62.8215 13.52C63.1095 13.52 63.3922 13.584 63.6695 13.712C63.9522 13.8347 64.1762 14 64.3415 14.208V12.08H65.2615V18H64.3415V17.336C64.1922 17.5493 63.9842 17.7253 63.7175 17.864C63.4562 18.0027 63.1548 18.072 62.8135 18.072C62.4295 18.072 62.0775 17.976 61.7575 17.784C61.4428 17.5867 61.1922 17.3147 61.0055 16.968C60.8242 16.616 60.7335 16.2187 60.7335 15.776ZM64.3415 15.792C64.3415 15.488 64.2775 15.224 64.1495 15C64.0268 14.776 63.8642 14.6053 63.6615 14.488C63.4588 14.3707 63.2402 14.312 63.0055 14.312C62.7708 14.312 62.5522 14.3707 62.3495 14.488C62.1468 14.6 61.9815 14.768 61.8535 14.992C61.7308 15.2107 61.6695 15.472 61.6695 15.776C61.6695 16.08 61.7308 16.3467 61.8535 16.576C61.9815 16.8053 62.1468 16.9813 62.3495 17.104C62.5575 17.2213 62.7762 17.28 63.0055 17.28C63.2402 17.28 63.4588 17.2213 63.6615 17.104C63.8642 16.9867 64.0268 16.816 64.1495 16.592C64.2775 16.3627 64.3415 16.096 64.3415 15.792ZM68.3714 18.072C67.9554 18.072 67.5794 17.9787 67.2434 17.792C66.9074 17.6 66.6434 17.3333 66.4514 16.992C66.2594 16.6453 66.1634 16.2453 66.1634 15.792C66.1634 15.344 66.262 14.9467 66.4594 14.6C66.6567 14.2533 66.926 13.9867 67.2674 13.8C67.6087 13.6133 67.99 13.52 68.4114 13.52C68.8327 13.52 69.214 13.6133 69.5554 13.8C69.8967 13.9867 70.166 14.2533 70.3634 14.6C70.5607 14.9467 70.6594 15.344 70.6594 15.792C70.6594 16.24 70.558 16.6373 70.3554 16.984C70.1527 17.3307 69.8754 17.6 69.5234 17.792C69.1767 17.9787 68.7927 18.072 68.3714 18.072ZM68.3714 17.28C68.606 17.28 68.8247 17.224 69.0274 17.112C69.2354 17 69.4034 16.832 69.5314 16.608C69.6594 16.384 69.7234 16.112 69.7234 15.792C69.7234 15.472 69.662 15.2027 69.5394 14.984C69.4167 14.76 69.254 14.592 69.0514 14.48C68.8487 14.368 68.63 14.312 68.3954 14.312C68.1607 14.312 67.942 14.368 67.7394 14.48C67.542 14.592 67.3847 14.76 67.2674 14.984C67.15 15.2027 67.0914 15.472 67.0914 15.792C67.0914 16.2667 67.2114 16.6347 67.4514 16.896C67.6967 17.152 68.0034 17.28 68.3714 17.28ZM72.4729 14.248C72.6276 14.0347 72.8383 13.8613 73.1049 13.728C73.3769 13.5893 73.6783 13.52 74.0089 13.52C74.3983 13.52 74.7503 13.6133 75.0649 13.8C75.3796 13.9867 75.6276 14.2533 75.8089 14.6C75.9903 14.9413 76.0809 15.3333 76.0809 15.776C76.0809 16.2187 75.9903 16.616 75.8089 16.968C75.6276 17.3147 75.3769 17.5867 75.0569 17.784C74.7423 17.976 74.3929 18.072 74.0089 18.072C73.6676 18.072 73.3636 18.0053 73.0969 17.872C72.8356 17.7387 72.6276 17.568 72.4729 17.36V18H71.5609V12.08H72.4729V14.248ZM75.1529 15.776C75.1529 15.472 75.0889 15.2107 74.9609 14.992C74.8383 14.768 74.6729 14.6 74.4649 14.488C74.2623 14.3707 74.0436 14.312 73.8089 14.312C73.5796 14.312 73.3609 14.3707 73.1529 14.488C72.9503 14.6053 72.7849 14.776 72.6569 15C72.5343 15.224 72.4729 15.488 72.4729 15.792C72.4729 16.096 72.5343 16.3627 72.6569 16.592C72.7849 16.816 72.9503 16.9867 73.1529 17.104C73.3609 17.2213 73.5796 17.28 73.8089 17.28C74.0436 17.28 74.2623 17.2213 74.4649 17.104C74.6729 16.9813 74.8383 16.8053 74.9609 16.576C75.0889 16.3467 75.1529 16.08 75.1529 15.776ZM81.0228 15.688C81.0228 15.8533 81.0121 16.0027 80.9908 16.136H77.6228C77.6495 16.488 77.7801 16.7707 78.0148 16.984C78.2495 17.1973 78.5375 17.304 78.8788 17.304C79.3695 17.304 79.7161 17.0987 79.9188 16.688H80.9028C80.7695 17.0933 80.5268 17.4267 80.1748 17.688C79.8281 17.944 79.3961 18.072 78.8788 18.072C78.4575 18.072 78.0788 17.9787 77.7428 17.792C77.4121 17.6 77.1508 17.3333 76.9588 16.992C76.7721 16.6453 76.6788 16.2453 76.6788 15.792C76.6788 15.3387 76.7695 14.9413 76.9508 14.6C77.1375 14.2533 77.3961 13.9867 77.7268 13.8C78.0628 13.6133 78.4468 13.52 78.8788 13.52C79.2948 13.52 79.6655 13.6107 79.9908 13.792C80.3161 13.9733 80.5695 14.2293 80.7508 14.56C80.9321 14.8853 81.0228 15.2613 81.0228 15.688ZM80.0708 15.4C80.0655 15.064 79.9455 14.7947 79.7108 14.592C79.4761 14.3893 79.1855 14.288 78.8388 14.288C78.5241 14.288 78.2548 14.3893 78.0308 14.592C77.8068 14.7893 77.6735 15.0587 77.6308 15.4H80.0708ZM84.9104 12.44V18H83.9984V12.44H84.9104ZM87.0198 12.08V18H86.1078V12.08H87.0198ZM89.1292 12.08V18H88.2172V12.08H89.1292ZM94.3186 13.592V18H93.4066V17.48C93.2626 17.6613 93.0732 17.8053 92.8386 17.912C92.6092 18.0133 92.3639 18.064 92.1026 18.064C91.7559 18.064 91.4439 17.992 91.1666 17.848C90.8946 17.704 90.6786 17.4907 90.5186 17.208C90.3639 16.9253 90.2866 16.584 90.2866 16.184V13.592H91.1906V16.048C91.1906 16.4427 91.2892 16.7467 91.4866 16.96C91.6839 17.168 91.9532 17.272 92.2946 17.272C92.6359 17.272 92.9052 17.168 93.1026 16.96C93.3052 16.7467 93.4066 16.4427 93.4066 16.048V13.592H94.3186ZM97.1219 18.072C96.7752 18.072 96.4632 18.0107 96.1859 17.888C95.9139 17.76 95.6979 17.5893 95.5379 17.376C95.3779 17.1573 95.2925 16.9147 95.2819 16.648H96.2259C96.2419 16.8347 96.3299 16.992 96.4899 17.12C96.6552 17.2427 96.8605 17.304 97.1059 17.304C97.3619 17.304 97.5592 17.256 97.6979 17.16C97.8419 17.0587 97.9139 16.9307 97.9139 16.776C97.9139 16.6107 97.8339 16.488 97.6739 16.408C97.5192 16.328 97.2712 16.24 96.9299 16.144C96.5992 16.0533 96.3299 15.9653 96.1219 15.88C95.9139 15.7947 95.7325 15.664 95.5779 15.488C95.4285 15.312 95.3539 15.08 95.3539 14.792C95.3539 14.5573 95.4232 14.344 95.5619 14.152C95.7005 13.9547 95.8979 13.8 96.1539 13.688C96.4152 13.576 96.7139 13.52 97.0499 13.52C97.5512 13.52 97.9539 13.648 98.2579 13.904C98.5672 14.1547 98.7325 14.4987 98.7539 14.936H97.8419C97.8259 14.7387 97.7459 14.5813 97.6019 14.464C97.4579 14.3467 97.2632 14.288 97.0179 14.288C96.7779 14.288 96.5939 14.3333 96.4659 14.424C96.3379 14.5147 96.2739 14.6347 96.2739 14.784C96.2739 14.9013 96.3165 15 96.4019 15.08C96.4872 15.16 96.5912 15.224 96.7139 15.272C96.8365 15.3147 97.0179 15.3707 97.2579 15.44C97.5779 15.5253 97.8392 15.6133 98.0419 15.704C98.2499 15.7893 98.4285 15.9173 98.5779 16.088C98.7272 16.2587 98.8045 16.4853 98.8099 16.768C98.8099 17.0187 98.7405 17.2427 98.6019 17.44C98.4632 17.6373 98.2659 17.792 98.0099 17.904C97.7592 18.016 97.4632 18.072 97.1219 18.072ZM100.859 14.336V16.776C100.859 16.9413 100.897 17.0613 100.971 17.136C101.051 17.2053 101.185 17.24 101.371 17.24H101.931V18H101.211C100.801 18 100.486 17.904 100.267 17.712C100.049 17.52 99.9393 17.208 99.9393 16.776V14.336H99.4193V13.592H99.9393V12.496H100.859V13.592H101.931V14.336H100.859ZM103.684 14.232C103.817 14.008 103.993 13.8347 104.212 13.712C104.436 13.584 104.7 13.52 105.004 13.52V14.464H104.772C104.415 14.464 104.143 14.5547 103.956 14.736C103.775 14.9173 103.684 15.232 103.684 15.68V18H102.772V13.592H103.684V14.232ZM105.538 15.776C105.538 15.3333 105.629 14.9413 105.81 14.6C105.997 14.2587 106.248 13.9947 106.562 13.808C106.882 13.616 107.234 13.52 107.618 13.52C107.965 13.52 108.266 13.5893 108.522 13.728C108.784 13.8613 108.992 14.0293 109.146 14.232V13.592H110.066V18H109.146V17.344C108.992 17.552 108.781 17.7253 108.514 17.864C108.248 18.0027 107.944 18.072 107.602 18.072C107.224 18.072 106.877 17.976 106.562 17.784C106.248 17.5867 105.997 17.3147 105.81 16.968C105.629 16.616 105.538 16.2187 105.538 15.776ZM109.146 15.792C109.146 15.488 109.082 15.224 108.954 15C108.832 14.776 108.669 14.6053 108.466 14.488C108.264 14.3707 108.045 14.312 107.81 14.312C107.576 14.312 107.357 14.3707 107.154 14.488C106.952 14.6 106.786 14.768 106.658 14.992C106.536 15.2107 106.474 15.472 106.474 15.776C106.474 16.08 106.536 16.3467 106.658 16.576C106.786 16.8053 106.952 16.9813 107.154 17.104C107.362 17.2213 107.581 17.28 107.81 17.28C108.045 17.28 108.264 17.2213 108.466 17.104C108.669 16.9867 108.832 16.816 108.954 16.592C109.082 16.3627 109.146 16.096 109.146 15.792ZM112.328 14.336V16.776C112.328 16.9413 112.365 17.0613 112.44 17.136C112.52 17.2053 112.653 17.24 112.84 17.24H113.4V18H112.68C112.269 18 111.955 17.904 111.736 17.712C111.517 17.52 111.408 17.208 111.408 16.776V14.336H110.888V13.592H111.408V12.496H112.328V13.592H113.4V14.336H112.328ZM116.153 18.072C115.737 18.072 115.361 17.9787 115.025 17.792C114.689 17.6 114.425 17.3333 114.233 16.992C114.041 16.6453 113.945 16.2453 113.945 15.792C113.945 15.344 114.043 14.9467 114.241 14.6C114.438 14.2533 114.707 13.9867 115.049 13.8C115.39 13.6133 115.771 13.52 116.193 13.52C116.614 13.52 116.995 13.6133 117.337 13.8C117.678 13.9867 117.947 14.2533 118.145 14.6C118.342 14.9467 118.441 15.344 118.441 15.792C118.441 16.24 118.339 16.6373 118.137 16.984C117.934 17.3307 117.657 17.6 117.305 17.792C116.958 17.9787 116.574 18.072 116.153 18.072ZM116.153 17.28C116.387 17.28 116.606 17.224 116.809 17.112C117.017 17 117.185 16.832 117.313 16.608C117.441 16.384 117.505 16.112 117.505 15.792C117.505 15.472 117.443 15.2027 117.321 14.984C117.198 14.76 117.035 14.592 116.833 14.48C116.63 14.368 116.411 14.312 116.177 14.312C115.942 14.312 115.723 14.368 115.521 14.48C115.323 14.592 115.166 14.76 115.049 14.984C114.931 15.2027 114.873 15.472 114.873 15.792C114.873 16.2667 114.993 16.6347 115.233 16.896C115.478 17.152 115.785 17.28 116.153 17.28ZM120.254 14.232C120.388 14.008 120.564 13.8347 120.782 13.712C121.006 13.584 121.27 13.52 121.574 13.52V14.464H121.342C120.985 14.464 120.713 14.5547 120.526 14.736C120.345 14.9173 120.254 15.232 120.254 15.68V18H119.342V13.592H120.254V14.232ZM122.781 18.056C122.615 18.056 122.477 18 122.365 17.888C122.253 17.776 122.197 17.6373 122.197 17.472C122.197 17.3067 122.253 17.168 122.365 17.056C122.477 16.944 122.615 16.888 122.781 16.888C122.941 16.888 123.077 16.944 123.189 17.056C123.301 17.168 123.357 17.3067 123.357 17.472C123.357 17.6373 123.301 17.776 123.189 17.888C123.077 18 122.941 18.056 122.781 18.056Z" fill="white"/>
</svg>
